<?xml version="1.0" encoding="UTF-8" standalone="no"?>
<!-- Created with Inkscape (http://www.inkscape.org/) -->

<svg
   version="1.1"
   id="svg1"
   width="1000"
   height="388.2793"
   viewBox="0 0 1000 388.2793"
   sodipodi:docname="Xiaohongshu (2013).svg"
   inkscape:version="1.3.2 (091e20e, 2023-11-25, custom)"
   xmlns:inkscape="http://www.inkscape.org/namespaces/inkscape"
   xmlns:sodipodi="http://sodipodi.sourceforge.net/DTD/sodipodi-0.dtd"
   xmlns="http://www.w3.org/2000/svg"
   xmlns:svg="http://www.w3.org/2000/svg">
  <defs
     id="defs1" />
  <sodipodi:namedview
     id="namedview1"
     pagecolor="#ffffff"
     bordercolor="#000000"
     borderopacity="0.25"
     inkscape:showpageshadow="2"
     inkscape:pageopacity="0.0"
     inkscape:pagecheckerboard="0"
     inkscape:deskcolor="#d1d1d1"
     inkscape:zoom="0.73500001"
     inkscape:cx="499.99999"
     inkscape:cy="193.87755"
     inkscape:window-width="1366"
     inkscape:window-height="705"
     inkscape:window-x="-8"
     inkscape:window-y="-8"
     inkscape:window-maximized="1"
     inkscape:current-layer="svg1" />
  <g
     inkscape:label="Image"
     id="g1"
     transform="matrix(2.3683903,0,0,2.3683903,-106.20573,-89.409102)"
     style="stroke-width:0.422228">
    <path
       style="font-variation-settings:normal;opacity:1;vector-effect:none;fill:#ff2442;fill-opacity:1;stroke:none;stroke-width:23.2225;stroke-linecap:butt;stroke-linejoin:miter;stroke-miterlimit:4;stroke-dasharray:none;stroke-dashoffset:0;stroke-opacity:1;-inkscape-stroke:none;stop-color:#000000;stop-opacity:1"
       d="M 104.863,37.751 V 191.3758 L 44.843,167.857 V 57.675 Z"
       id="path1"
       sodipodi:nodetypes="ccccc" />
    <path
       style="font-variation-settings:normal;opacity:1;vector-effect:none;fill:#ff2442;fill-opacity:1;stroke:none;stroke-width:23.2225;stroke-linecap:butt;stroke-linejoin:miter;stroke-miterlimit:4;stroke-dasharray:none;stroke-dashoffset:0;stroke-opacity:1;-inkscape-stroke:none;stop-color:#000000;stop-opacity:1"
       d="m 123.268,51.907 11.611,2.941 v 117.80617 l -11.611,3.18783 19.694,4.49517 V 47.379 Z"
       id="path2"
       sodipodi:nodetypes="ccccccc" />
    <g
       id="g6"
       style="stroke-width:0.422228">
      <path
         d="m 219.64565,54.549039 h 14.59961 v 75.687481 q 0.3842,11.14181 -11.14181,11.14181 h -13.83121 v -11.52601 h 9.22081 q 1.1526,0 1.1526,-1.1526 z m 34.57803,74.534881 -6.9156,-71.461277 h 14.98381 l 6.14721,64.545667 q -0.3842,4.9946 4.9946,4.2262 v 11.91022 h -9.60501 q -8.4524,-0.3842 -9.60501,-9.22081 z m -66.46666,-5.76301 3.842,-64.929867 h 13.83121 l -3.842,68.771867 q 0,12.67862 -11.52601,11.52602 h -7.29981 v -11.91022 q 5.37881,0.3842 4.99461,-3.4578 z"
         id="text6"
         style="font-size:98.3553px;line-height:0;font-family:FZZongYi-M05S;-inkscape-font-specification:FZZongYi-M05S;letter-spacing:0px;word-spacing:0px;fill:#ff2442;fill-rule:evenodd;stroke-width:2.53336;stroke-linecap:round;paint-order:stroke fill markers"
         aria-label="小" />
      <path
         d="M 283.03873,77.601063 297.63834,54.93324 h 14.98382 l -16.90482,26.509827 h 4.99461 l 5.3788,-8.836609 h 15.75222 L 299.17515,108.7213 h 17.67321 v 11.91021 H 283.03873 V 109.8739 l 12.29441,-17.673222 h -12.29441 z m 54.17226,52.251257 V 67.227652 H 321.84297 V 54.93324 h 48.02505 V 67.227652 H 352.1948 v 62.624668 h 18.05742 v 12.29441 h -48.79345 v -12.29441 z m -54.55646,11.14181 v -11.52601 h 34.19383 v 11.52601 z"
         id="text5"
         style="font-size:98.3553px;line-height:0;font-family:FZZongYi-M05S;-inkscape-font-specification:FZZongYi-M05S;letter-spacing:0px;word-spacing:0px;fill:#ff2442;fill-rule:evenodd;stroke-width:2.53336;stroke-linecap:round;paint-order:stroke fill markers"
         aria-label="红" />
      <path
         d="m 381.77822,60.696246 h 21.51522 V 55.31744 h 14.21541 v 5.378806 h 26.50983 v 36.499037 h 22.28362 v 34.578037 q 0.3842,10.37341 -9.60501,9.98921 h -23.05202 v -10.75761 h 16.90482 q 1.1526,0 1.1526,-1.5368 V 109.1055 h -34.19384 v 34.57803 H 403.29344 V 109.1055 H 381.77822 V 97.195283 h 21.51522 V 72.606458 h -21.51522 z m 68.38767,19.59422 -1.92101,-24.973026 h 12.67862 l 1.5368,19.59422 q 0,3.457804 2.6894,3.457804 h 1.921 v 11.141811 h -8.45241 q -8.4524,0.768401 -8.4524,-9.220809 z M 430.95587,97.195283 V 72.606458 h -13.44702 v 24.588825 z"
         id="text4"
         style="font-size:98.3553px;line-height:0;font-family:FZZongYi-M05S;-inkscape-font-specification:FZZongYi-M05S;letter-spacing:0px;word-spacing:0px;fill:#ff2442;fill-rule:evenodd;stroke-width:2.53336;stroke-linecap:round;paint-order:stroke fill markers"
         aria-label="书" />
    </g>
    <g
       id="g17"
       style="stroke-width:0.422228">
      <path
         d="m 208.74535,189.84633 h -5.03864 l -8.11097,-13.49371 q -0.36868,-0.61447 -0.8111,-1.74509 h -0.0983 q -0.24578,0.56531 -0.83567,1.74509 l -8.35676,13.49371 h -5.06322 l 11.79778,-17.72125 -10.86379,-17.52462 h 5.06322 l 7.20156,12.38767 q 0.71278,1.22893 1.25351,2.45787 h 0.0983 q 0.78652,-1.6222 1.37641,-2.55619 l 7.4965,-12.28935 h 4.7437 l -11.085,17.47546 z"
         id="text17"
         style="font-size:50.3372px;line-height:0;font-family:'Segoe UI';-inkscape-font-specification:'Segoe UI';letter-spacing:-0.1px;word-spacing:0px;fill:#ff2442;fill-rule:evenodd;stroke-width:2.53337;stroke-linecap:round;paint-order:stroke fill markers"
         aria-label="X" />
      <path
         d="m 215.52738,158.28726 q -1.08146,0 -1.8434,-0.73736 -0.76194,-0.73736 -0.76194,-1.86798 0,-1.13062 0.76194,-1.86798 0.76194,-0.76194 1.8434,-0.76194 1.10605,0 1.86799,0.76194 0.78651,0.73736 0.78651,1.86798 0,1.08146 -0.78651,1.8434 -0.76194,0.76194 -1.86799,0.76194 z m 1.9663,31.55907 h -4.03091 v -25.1686 h 4.03091 z"
         id="text16"
         style="font-size:50.3372px;line-height:0;font-family:'Segoe UI';-inkscape-font-specification:'Segoe UI';letter-spacing:-0.1px;word-spacing:0px;fill:#ff2442;fill-rule:evenodd;stroke-width:2.53337;stroke-linecap:round;paint-order:stroke fill markers"
         aria-label="i" />
      <path
         d="m 243.57002,189.84633 h -4.03091 v -3.9326 h -0.0983 q -2.62992,4.52249 -7.74229,4.52249 -3.76054,0 -5.89889,-1.99088 -2.11377,-1.99087 -2.11377,-5.28442 0,-7.05409 8.3076,-8.20929 l 7.54567,-1.05688 q 0,-6.41505 -5.18611,-6.41505 -4.54706,0 -8.20929,3.09692 v -4.12922 q 3.71139,-2.35956 8.55339,-2.35956 8.87292,0 8.87292,9.38907 z m -4.03091,-12.73177 -6.07094,0.83567 q -2.80198,0.39326 -4.22754,1.40099 -1.42557,0.98315 -1.42557,3.51475 0,1.84341 1.30267,3.02319 1.32725,1.1552 3.51476,1.1552 2.9986,0 4.94032,-2.08919 1.9663,-2.11377 1.9663,-5.33359 z"
         id="text15"
         style="font-size:50.3372px;line-height:0;font-family:'Segoe UI';-inkscape-font-specification:'Segoe UI';letter-spacing:-0.1px;word-spacing:0px;fill:#ff2442;fill-rule:evenodd;stroke-width:2.53337;stroke-linecap:round;paint-order:stroke fill markers"
         aria-label="a" />
      <path
         d="m 261.58451,190.43622 q -5.57937,0 -8.92207,-3.51476 -3.31813,-3.53933 -3.31813,-9.36449 0,-6.3413 3.4656,-9.90522 3.4656,-3.56391 9.36449,-3.56391 5.62852,0 8.7746,3.4656 3.17065,3.4656 3.17065,9.61027 0,6.02179 -3.41644,9.65944 -3.39186,3.61307 -9.1187,3.61307 z m 0.29495,-22.95652 q -3.88344,0 -6.14468,2.6545 -2.26124,2.62992 -2.26124,7.2753 0,4.47333 2.28582,7.05409 2.28582,2.58077 6.1201,2.58077 3.90801,0 5.9972,-2.53161 2.11377,-2.53161 2.11377,-7.20156 0,-4.71912 -2.11377,-7.2753 -2.08919,-2.55619 -5.9972,-2.55619 z"
         id="text14"
         style="font-size:50.3372px;line-height:0;font-family:'Segoe UI';-inkscape-font-specification:'Segoe UI';letter-spacing:-0.1px;word-spacing:0px;fill:#ff2442;fill-rule:evenodd;stroke-width:2.53337;stroke-linecap:round;paint-order:stroke fill markers"
         aria-label="o" />
      <path
         d="m 301.35118,189.84633 h -4.03091 v -14.50144 q 0,-7.86519 -5.84973,-7.86519 -2.94945,0 -4.9649,2.28582 -2.01545,2.26124 -2.01545,5.82516 v 14.25565 h -4.03091 V 152.585 h 4.03091 v 16.27111 h 0.0983 q 2.90029,-4.76827 8.25845,-4.76827 8.50423,0 8.50423,10.24932 z"
         id="text13"
         style="font-size:50.3372px;line-height:0;font-family:'Segoe UI';-inkscape-font-specification:'Segoe UI';letter-spacing:-0.1px;word-spacing:0px;fill:#ff2442;fill-rule:evenodd;stroke-width:2.53337;stroke-linecap:round;paint-order:stroke fill markers"
         aria-label="h" />
      <path
         d="m 319.36572,190.43622 q -5.57937,0 -8.92208,-3.51476 -3.31812,-3.53933 -3.31812,-9.36449 0,-6.3413 3.4656,-9.90522 3.46559,-3.56391 9.36448,-3.56391 5.62853,0 8.7746,3.4656 3.17066,3.4656 3.17066,9.61027 0,6.02179 -3.41644,9.65944 -3.39187,3.61307 -9.1187,3.61307 z m 0.29494,-22.95652 q -3.88344,0 -6.14468,2.6545 -2.26124,2.62992 -2.26124,7.2753 0,4.47333 2.28582,7.05409 2.28582,2.58077 6.1201,2.58077 3.90801,0 5.99721,-2.53161 2.11376,-2.53161 2.11376,-7.20156 0,-4.71912 -2.11376,-7.2753 -2.0892,-2.55619 -5.99721,-2.55619 z"
         id="text12"
         style="font-size:50.3372px;line-height:0;font-family:'Segoe UI';-inkscape-font-specification:'Segoe UI';letter-spacing:-0.1px;word-spacing:0px;fill:#ff2442;fill-rule:evenodd;stroke-width:2.53337;stroke-linecap:round;paint-order:stroke fill markers"
         aria-label="o" />
      <path
         d="m 359.13237,189.84633 h -4.03091 v -14.35397 q 0,-8.01266 -5.84973,-8.01266 -3.02318,0 -5.01406,2.28582 -1.96629,2.26124 -1.96629,5.72684 v 14.35397 h -4.03091 v -25.1686 h 4.03091 v 4.17838 h 0.0983 q 2.85113,-4.76827 8.25845,-4.76827 4.12922,0 6.31673,2.67908 2.1875,2.6545 2.1875,7.69314 z"
         id="text11"
         style="font-size:50.3372px;line-height:0;font-family:'Segoe UI';-inkscape-font-specification:'Segoe UI';letter-spacing:-0.1px;word-spacing:0px;fill:#ff2442;fill-rule:evenodd;stroke-width:2.53337;stroke-linecap:round;paint-order:stroke fill markers"
         aria-label="n" />
      <path
         d="m 388.10898,187.83087 q 0,13.8624 -13.27251,13.8624 -4.66995,0 -8.16013,-1.76967 v -4.03091 q 4.25212,2.35956 8.11098,2.35956 9.29075,0 9.29075,-9.88064 v -2.75282 h -0.0983 q -2.87571,4.81743 -8.65171,4.81743 -4.69453,0 -7.57024,-3.34271 -2.85113,-3.36728 -2.85113,-9.02038 0,-6.41505 3.07233,-10.20017 3.09692,-3.78512 8.45508,-3.78512 5.08779,0 7.54567,4.08007 h 0.0983 v -3.49018 h 4.03091 z m -4.03091,-9.36448 V 174.755 q 0,-2.9986 -2.04003,-5.13695 -2.01546,-2.13835 -5.03864,-2.13835 -3.73596,0 -5.84973,2.72824 -2.11377,2.70366 -2.11377,7.59482 0,4.20296 2.01545,6.73457 2.04004,2.50703 5.38274,2.50703 3.39186,0 5.50563,-2.40872 2.13835,-2.40871 2.13835,-6.16925 z"
         id="text10"
         style="font-size:50.3372px;line-height:0;font-family:'Segoe UI';-inkscape-font-specification:'Segoe UI';letter-spacing:-0.1px;word-spacing:0px;fill:#ff2442;fill-rule:evenodd;stroke-width:2.53337;stroke-linecap:round;paint-order:stroke fill markers"
         aria-label="g" />
      <path
         d="m 394.64524,188.93692 v -4.32586 q 3.29354,2.4333 7.25072,2.4333 5.309,0 5.309,-3.53934 0,-1.00773 -0.467,-1.69593 -0.44241,-0.71278 -1.22893,-1.25351 -0.76194,-0.54074 -1.81883,-0.95857 -1.0323,-0.44242 -2.23666,-0.90942 -1.67135,-0.66362 -2.94945,-1.32725 -1.25351,-0.6882 -2.11377,-1.52388 -0.83567,-0.86025 -1.27809,-1.94171 -0.41784,-1.08147 -0.41784,-2.53161 0,-1.76967 0.8111,-3.1215 0.8111,-1.37641 2.16293,-2.28582 1.35183,-0.93399 3.07234,-1.40098 1.74509,-0.467 3.58849,-0.467 3.26897,0 5.84973,1.13062 v 4.08007 q -2.77739,-1.81883 -6.39046,-1.81883 -1.13062,0 -2.04004,0.27037 -0.90941,0.24578 -1.57303,0.71278 -0.63905,0.467 -1.00773,1.13062 -0.3441,0.63905 -0.3441,1.42557 0,0.98314 0.3441,1.64677 0.36868,0.66362 1.05688,1.17978 0.68821,0.51615 1.67136,0.93399 0.98314,0.41784 2.23666,0.90941 1.67135,0.63905 2.9986,1.32725 1.32725,0.66363 2.26124,1.52388 0.93399,0.83568 1.42557,1.94172 0.51615,1.10604 0.51615,2.62992 0,1.86798 -0.83568,3.24439 -0.81109,1.37641 -2.1875,2.28582 -1.37641,0.90941 -3.17065,1.35183 -1.79425,0.44242 -3.76055,0.44242 -3.88343,0 -6.73456,-1.4993 z"
         id="text9"
         style="font-size:50.3372px;line-height:0;font-family:'Segoe UI';-inkscape-font-specification:'Segoe UI';letter-spacing:-0.1px;word-spacing:0px;fill:#ff2442;fill-rule:evenodd;stroke-width:2.53337;stroke-linecap:round;paint-order:stroke fill markers"
         aria-label="s" />
      <path
         d="m 438.31993,189.84633 h -4.03091 v -14.50144 q 0,-7.86519 -5.84973,-7.86519 -2.94945,0 -4.9649,2.28582 -2.01545,2.26124 -2.01545,5.82516 v 14.25565 h -4.03091 V 152.585 h 4.03091 v 16.27111 h 0.0983 q 2.90029,-4.76827 8.25845,-4.76827 8.50423,0 8.50423,10.24932 z"
         id="text8"
         style="font-size:50.3372px;line-height:0;font-family:'Segoe UI';-inkscape-font-specification:'Segoe UI';letter-spacing:-0.1px;word-spacing:0px;fill:#ff2442;fill-rule:evenodd;stroke-width:2.53337;stroke-linecap:round;paint-order:stroke fill markers"
         aria-label="h" />
      <path
         d="m 466.16592,189.84633 h -4.03091 v -3.98175 h -0.0983 q -2.50703,4.57164 -7.76688,4.57164 -8.99581,0 -8.99581,-10.71632 v -15.04217 h 4.00633 v 14.40312 q 0,7.96351 6.09552,7.96351 2.94945,0 4.84201,-2.16293 1.91714,-2.18751 1.91714,-5.70226 v -14.50144 h 4.03091 z"
         id="text7"
         style="font-size:50.3372px;line-height:0;font-family:'Segoe UI';-inkscape-font-specification:'Segoe UI';letter-spacing:-0.1px;word-spacing:0px;fill:#ff2442;fill-rule:evenodd;stroke-width:2.53337;stroke-linecap:round;paint-order:stroke fill markers"
         aria-label="u" />
    </g>
  </g>
</svg>
